# xmcd
#
# Track frame offsets:
#	150
#	17141
#	36298
#	56824
#	77535
#	94986
#	114340
#	133570
#	155789
#	172833
#	195999
#	216006
#	231910
#	251403
#	271700
#
# Disc length: 3840 seconds
#
# Revision: 1
# Processed by: cddbd v1.5.2PL0 Copyright (c) Steve Scherf et al.
# Submitted via: FairStars CD Ripper 1.90
#
DISCID=c10efe0f
DTITLE=Martin Nievera - As Always
DYEAR=2009
DGENRE=Ballad
TTITLE0=Miles Away
TTITLE1=You're All I Need
TTITLE2=Living Inside Myself
TTITLE3=More Than You'll Ever Know
TTITLE4=Honesty
TTITLE5=One Hundred Ways
TTITLE6=Everytime You Go Away
TTITLE7=You And I
TTITLE8=Beautiful
TTITLE9=Martin Nievera duet with Kyla - How Do You Keep the Music Playing
TTITLE10=If You Leave Me Now
TTITLE11=Fixing A Broken Heart
TTITLE12=One Day In Your Life
TTITLE13=Someone Who Believes In You
TTITLE14=I'm Never Gonna Say Goodbye
EXTD=
EXTT0=
EXTT1=
EXTT2=
EXTT3=
EXTT4=
EXTT5=
EXTT6=
EXTT7=
EXTT8=
EXTT9=
EXTT10=
EXTT11=
EXTT12=
EXTT13=
EXTT14=
PLAYORDER=
